<?xml version="1.0" encoding="UTF-8" standalone="no"?>
<!-- Created with Inkscape (http://www.inkscape.org/) -->

<svg
   width="38.548508mm"
   height="9.8530521mm"
   viewBox="0 0 38.548508 9.8530521"
   version="1.1"
   id="svg1065"
   inkscape:version="1.1.1 (c3084ef, 2021-09-22)"
   sodipodi:docname="logo_purple.svg"
   xmlns:inkscape="http://www.inkscape.org/namespaces/inkscape"
   xmlns:sodipodi="http://sodipodi.sourceforge.net/DTD/sodipodi-0.dtd"
   xmlns="http://www.w3.org/2000/svg"
   xmlns:svg="http://www.w3.org/2000/svg">
  <sodipodi:namedview
     id="namedview1067"
     pagecolor="#505050"
     bordercolor="#ffffff"
     borderopacity="1"
     inkscape:pageshadow="0"
     inkscape:pageopacity="0"
     inkscape:pagecheckerboard="1"
     inkscape:document-units="mm"
     showgrid="false"
     fit-margin-top="0"
     fit-margin-left="0"
     fit-margin-right="0"
     fit-margin-bottom="0"
     inkscape:zoom="11.721354"
     inkscape:cx="91.329037"
     inkscape:cy="26.53277"
     inkscape:window-width="1444"
     inkscape:window-height="844"
     inkscape:window-x="0"
     inkscape:window-y="38"
     inkscape:window-maximized="0"
     inkscape:current-layer="layer1" />
  <defs
     id="defs1062" />
  <g
     inkscape:label="Layer 1"
     inkscape:groupmode="layer"
     id="layer1"
     transform="translate(-43.366885,-119.41883)">
    <g
       id="g10466"
       style="fill:#2713e1;fill-opacity:1">
      <path
         d="m 43.366885,127.1023 v -5.14348 h 1.619245 v 5.14348 z m 1.619245,-2.82574 -0.677331,-0.52916 q 0.201083,-0.89958 0.677331,-1.397 0.476249,-0.49741 1.322913,-0.49741 0.370415,0 0.645581,0.11641 0.285749,0.10584 0.497415,0.33867 l -0.96308,1.21708 q -0.105833,-0.11642 -0.264583,-0.17992 -0.158749,-0.0635 -0.359832,-0.0635 -0.402165,0 -0.645581,0.254 -0.232833,0.24342 -0.232833,0.74083 z"
         style="font-weight:bold;font-size:10.5833px;line-height:1.25;font-family:Outfit;-inkscape-font-specification:'Outfit Bold';letter-spacing:-0.211667px;stroke-width:0.264583;fill:#2713e1;fill-opacity:1"
         id="path10246" />
      <path
         d="m 50.015346,127.21872 q -0.83608,0 -1.492245,-0.33867 -0.645581,-0.34925 -1.015997,-0.96308 -0.370415,-0.61383 -0.370415,-1.38641 0,-0.77258 0.359832,-1.37583 0.370416,-0.61383 0.99483,-0.96308 0.624415,-0.34925 1.407579,-0.34925 0.761998,0 1.344079,0.32808 0.582082,0.32809 0.910164,0.91017 0.338665,0.58208 0.338665,1.33349 0,0.13759 -0.02117,0.29634 -0.01058,0.14816 -0.05292,0.34925 l -4.434402,0.0106 v -1.11125 l 3.746488,-0.0106 -0.698498,0.46566 q -0.01058,-0.44449 -0.137583,-0.73024 -0.126999,-0.29634 -0.380999,-0.4445 -0.243415,-0.15875 -0.603248,-0.15875 -0.380998,0 -0.666748,0.17991 -0.275165,0.16934 -0.433915,0.48684 -0.148166,0.3175 -0.148166,0.77258 0,0.45508 0.15875,0.78316 0.169332,0.3175 0.465665,0.49742 0.306915,0.16933 0.719664,0.16933 0.380999,0 0.687915,-0.127 0.306915,-0.13758 0.539748,-0.40217 l 0.888997,0.889 q -0.380999,0.4445 -0.920747,0.66675 -0.539748,0.22225 -1.18533,0.22225 z"
         style="font-weight:bold;font-size:10.5833px;line-height:1.25;font-family:Outfit;-inkscape-font-specification:'Outfit Bold';letter-spacing:-0.211667px;stroke-width:0.264583;fill:#2713e1;fill-opacity:1"
         id="path10248" />
      <path
         d="m 56.035424,127.20814 q -0.518582,0 -0.952497,-0.20109 -0.433915,-0.20108 -0.709081,-0.55033 -0.275166,-0.35983 -0.317499,-0.81491 v -2.16958 q 0.04233,-0.45508 0.317499,-0.8255 0.275166,-0.37041 0.709081,-0.58208 0.433915,-0.21166 0.952497,-0.21166 0.730248,0 1.291162,0.34924 0.571499,0.34925 0.888998,0.9525 0.328082,0.60325 0.328082,1.37583 0,0.77258 -0.328082,1.37583 -0.317499,0.60325 -0.888998,0.9525 -0.560914,0.34925 -1.291162,0.34925 z m -2.963324,2.06374 v -7.31306 h 1.619245 v 1.32291 l -0.264583,1.24883 0.243416,1.24883 v 3.49249 z m 2.666991,-3.52424 q 0.349249,0 0.603249,-0.15875 0.264582,-0.15875 0.412748,-0.43391 0.148166,-0.27517 0.148166,-0.62442 0,-0.35983 -0.148166,-0.635 -0.148166,-0.27516 -0.412748,-0.42333 -0.254,-0.15875 -0.592665,-0.15875 -0.338666,0 -0.603248,0.15875 -0.254,0.14817 -0.402166,0.42333 -0.148166,0.27517 -0.148166,0.635 0,0.34925 0.137583,0.62442 0.148166,0.27516 0.412749,0.43391 0.264582,0.15875 0.592664,0.15875 z"
         style="font-weight:bold;font-size:10.5833px;line-height:1.25;font-family:Outfit;-inkscape-font-specification:'Outfit Bold';letter-spacing:-0.211667px;stroke-width:0.264583;fill:#2713e1;fill-opacity:1"
         id="path10250" />
      <path
         d="m 61.64143,127.21872 q -0.793747,0 -1.439328,-0.34925 -0.634998,-0.35983 -1.005414,-0.97366 -0.370415,-0.61383 -0.370415,-1.37583 0,-0.762 0.370415,-1.36525 0.370416,-0.60325 1.005414,-0.9525 0.634998,-0.35983 1.439328,-0.35983 0.804331,0 1.439329,0.34925 0.634998,0.34925 1.005414,0.96308 0.370415,0.60325 0.370415,1.36525 0,0.762 -0.370415,1.37583 -0.370416,0.61383 -1.005414,0.97366 -0.634998,0.34925 -1.439329,0.34925 z m 0,-1.47108 q 0.349249,0 0.613832,-0.14817 0.264582,-0.15875 0.402165,-0.43391 0.148166,-0.28575 0.148166,-0.64558 0,-0.35983 -0.148166,-0.62442 -0.148166,-0.27516 -0.412749,-0.42333 -0.253999,-0.15875 -0.603248,-0.15875 -0.338665,0 -0.603248,0.15875 -0.264582,0.14817 -0.412748,0.42333 -0.148167,0.27517 -0.148167,0.635 0,0.34925 0.148167,0.635 0.148166,0.27516 0.412748,0.43391 0.264583,0.14817 0.603248,0.14817 z"
         style="font-weight:bold;font-size:10.5833px;line-height:1.25;font-family:Outfit;-inkscape-font-specification:'Outfit Bold';letter-spacing:-0.211667px;stroke-width:0.264583;fill:#2713e1;fill-opacity:1"
         id="path10252" />
      <path
         d="m 65.77768,127.21872 q -0.412748,0 -0.687914,-0.28575 -0.275166,-0.28575 -0.275166,-0.68791 0,-0.42334 0.275166,-0.6985 0.275166,-0.28575 0.687914,-0.28575 0.423332,0 0.687915,0.28575 0.275166,0.27516 0.275166,0.6985 0,0.40216 -0.275166,0.68791 -0.264583,0.28575 -0.687915,0.28575 z"
         style="font-weight:bold;font-size:10.5833px;line-height:1.25;font-family:Outfit;-inkscape-font-specification:'Outfit Bold';letter-spacing:-0.211667px;stroke-width:0.264583;fill:#2713e1;fill-opacity:1"
         id="path10254" />
      <path
         d="m 67.733274,127.1023 v -5.14348 h 1.619245 v 5.14348 z m 3.291406,0 v -3.00565 q 0,-0.39159 -0.243416,-0.60325 -0.232833,-0.22225 -0.582081,-0.22225 -0.243416,0 -0.433916,0.10583 -0.190499,0.0952 -0.306915,0.27517 -0.105833,0.17991 -0.105833,0.4445 l -0.624415,-0.27517 q 0,-0.61383 0.264582,-1.04775 0.264583,-0.4445 0.719665,-0.67733 0.455082,-0.24341 1.02658,-0.24341 0.539748,0 0.96308,0.24341 0.433915,0.24342 0.687915,0.67733 0.253999,0.43392 0.253999,1.03717 v 3.2914 z m 3.291406,0 v -3.00565 q 0,-0.39159 -0.243416,-0.60325 -0.232832,-0.22225 -0.582081,-0.22225 -0.243416,0 -0.433916,0.10583 -0.190499,0.0952 -0.306915,0.27517 -0.105833,0.17991 -0.105833,0.4445 l -0.931331,-0.127 q 0.02117,-0.65617 0.306916,-1.12183 0.296333,-0.47625 0.772581,-0.73025 0.486832,-0.26458 1.09008,-0.26458 0.592665,0 1.047747,0.254 0.465665,0.24341 0.730247,0.70908 0.275166,0.45508 0.275166,1.10066 v 3.18557 z"
         style="font-weight:bold;font-size:10.5833px;line-height:1.25;font-family:Outfit;-inkscape-font-specification:'Outfit Bold';letter-spacing:-0.211667px;stroke-width:0.264583;fill:#2713e1;fill-opacity:1"
         id="path10256" />
      <path
         d="m 78.952068,127.20814 q -0.730248,0 -1.301746,-0.34925 -0.560915,-0.34925 -0.888997,-0.9525 -0.317499,-0.60325 -0.317499,-1.37583 0,-0.77258 0.317499,-1.37583 0.328082,-0.60325 0.888997,-0.9525 0.571498,-0.34924 1.301746,-0.34924 0.529165,0 0.952497,0.20108 0.433915,0.20108 0.709081,0.56091 0.285749,0.34925 0.317499,0.80433 v 2.16958 q -0.03175,0.45508 -0.306915,0.8255 -0.275166,0.35983 -0.709082,0.58208 -0.433915,0.21167 -0.96308,0.21167 z m 0.285749,-1.4605 q 0.349249,0 0.603248,-0.14817 0.254,-0.15875 0.402166,-0.43391 0.148166,-0.27517 0.148166,-0.635 0,-0.35983 -0.148166,-0.62441 -0.137583,-0.27517 -0.402166,-0.43392 -0.253999,-0.15875 -0.592664,-0.15875 -0.338666,0 -0.603249,0.15875 -0.253999,0.15875 -0.412748,0.43392 -0.148166,0.27516 -0.148166,0.62441 0,0.34925 0.148166,0.62442 0.148166,0.27516 0.412748,0.43391 0.264583,0.15875 0.592665,0.15875 z m 2.677575,1.35466 h -1.587495 v -1.38641 l 0.243416,-1.24883 -0.275166,-1.24883 v -3.7994 h 1.619245 z"
         style="font-weight:bold;font-size:10.5833px;line-height:1.25;font-family:Outfit;-inkscape-font-specification:'Outfit Bold';letter-spacing:-0.211667px;stroke-width:0.264583;fill:#2713e1;fill-opacity:1"
         id="path10258" />
    </g>
  </g>
</svg>
